<?xml version="1.0" standalone="no"?>
<!DOCTYPE svg PUBLIC "-//W3C//DTD SVG 20010904//EN"
 "http://www.w3.org/TR/2001/REC-SVG-20010904/DTD/svg10.dtd">
<svg version="1.0" xmlns="http://www.w3.org/2000/svg"
 width="671.000000pt" height="697.000000pt" viewBox="0 0 671.000000 697.000000"
 preserveAspectRatio="xMidYMid meet">
<metadata>
Created by potrace 1.14, written by Peter Selinger 2001-2017
</metadata>
<g transform="translate(0.000000,697.000000) scale(0.100000,-0.100000)"
fill="#000000" stroke="none">
<path d="M3755 6584 c-618 -111 -1321 -656 -1771 -1374 -283 -452 -465 -960
-545 -1522 -12 -79 -11 -92 7 -147 10 -34 22 -61 26 -61 12 0 10 7 -13 71
l-22 59 32 178 c42 236 100 472 155 629 55 160 57 164 65 159 4 -3 8 7 9 22 2
32 22 84 35 93 4 3 9 12 11 20 4 25 38 89 47 89 5 0 8 6 7 13 -2 6 3 11 10 9
8 -1 11 2 8 6 -6 11 32 94 48 104 6 4 8 8 4 8 -9 0 30 78 43 86 5 3 7 9 4 14
-3 4 2 10 10 14 8 3 15 12 15 21 0 8 4 15 9 15 5 0 11 8 15 18 6 19 20 41 56
92 14 19 31 47 39 61 11 22 26 43 70 95 5 7 8 14 5 16 -2 3 16 26 40 52 25 26
45 49 44 52 0 6 27 41 68 89 12 14 25 21 29 17 5 -4 6 -2 2 3 -6 12 79 108
103 118 8 3 10 6 3 6 -12 1 44 61 92 99 15 12 24 22 20 22 -4 0 7 14 25 30 18
17 36 30 41 30 5 0 9 8 9 17 0 9 3 14 6 10 3 -3 18 6 33 21 32 32 67 62 136
117 28 22 52 43 53 48 2 4 8 7 14 7 6 0 30 16 53 35 23 19 46 31 50 27 5 -4 5
-2 1 5 -4 8 3 15 20 19 25 6 46 20 78 50 6 6 14 10 18 10 4 -1 15 6 25 14 10
8 35 24 56 35 20 11 37 22 37 26 0 4 14 9 31 13 17 3 28 10 25 15 -3 5 1 12
10 15 8 3 12 2 9 -4 -3 -6 -1 -10 4 -10 6 0 11 4 11 9 0 5 10 13 23 17 12 3
28 11 36 17 7 6 20 12 29 13 8 2 18 6 21 11 7 11 22 10 38 0 9 -5 11 -3 8 5
-5 12 93 55 140 62 5 1 16 5 23 9 6 5 12 6 12 2 0 -3 16 1 35 10 44 18 234 45
318 45 116 0 304 -40 291 -62 -4 -6 2 -6 14 1 15 8 23 8 27 0 4 -6 14 -8 22
-5 8 3 12 2 9 -3 -3 -4 14 -16 39 -26 24 -10 42 -22 40 -26 -3 -4 6 -10 20
-13 14 -4 25 -13 25 -21 0 -8 7 -16 15 -16 30 -3 34 -4 47 -16 9 -10 9 -13 0
-13 -7 0 -12 5 -12 10 0 6 -3 9 -7 9 -5 -1 -26 -1 -48 0 -31 1 -37 4 -25 12
12 8 9 10 -12 6 -15 -2 -25 -1 -23 3 11 17 -225 56 -320 54 -83 -2 -296 -32
-310 -44 -5 -4 -21 -7 -35 -6 -14 1 -35 -4 -47 -12 -12 -8 -27 -11 -33 -7 -5
3 -12 0 -15 -7 -3 -8 -19 -15 -36 -16 -17 -1 -48 -11 -70 -22 -21 -11 -39 -18
-39 -15 0 7 -53 -27 -62 -40 -5 -6 -8 -5 -8 4 0 12 -3 12 -17 -1 -16 -13 -80
-43 -94 -43 -3 0 -13 -8 -22 -17 -10 -9 -27 -20 -38 -23 -12 -4 -37 -18 -56
-31 -20 -13 -39 -21 -43 -19 -5 3 -12 0 -16 -6 -4 -8 -3 -9 4 -5 7 4 12 5 12
2 0 -2 -20 -14 -45 -26 -25 -12 -45 -25 -45 -30 0 -9 -39 -23 -55 -20 -5 1 -7
-1 -3 -5 9 -10 0 -18 -112 -101 -52 -39 -108 -86 -125 -103 -16 -18 -41 -36
-53 -42 -13 -5 -26 -18 -29 -29 -3 -11 -9 -17 -14 -14 -5 3 -9 0 -9 -5 0 -6
-7 -11 -17 -11 -9 0 -14 -3 -10 -6 8 -8 -25 -44 -41 -44 -7 0 -10 -5 -7 -10 3
-6 -1 -13 -9 -16 -9 -3 -13 -10 -10 -15 3 -5 1 -9 -4 -9 -13 0 -87 -73 -95
-93 -3 -9 -11 -17 -17 -17 -5 0 -10 -4 -10 -9 0 -5 -12 -22 -27 -38 -61 -63
-177 -214 -172 -223 3 -5 -21 -38 -53 -72 -10 -10 -16 -18 -13 -18 4 0 -13
-23 -40 -54 -6 -6 -16 -22 -22 -36 -31 -62 -61 -109 -67 -103 -3 3 -6 -5 -6
-19 0 -14 -7 -31 -15 -38 -8 -6 -17 -22 -21 -33 -3 -12 -12 -29 -19 -37 -26
-32 -155 -343 -155 -373 0 -10 -4 -15 -10 -12 -6 4 -10 -6 -10 -22 0 -16 -6
-37 -14 -48 -7 -11 -13 -27 -13 -35 0 -8 -12 -50 -27 -93 -14 -42 -25 -90 -25
-105 1 -20 2 -22 6 -7 9 40 67 203 115 325 214 540 556 1013 993 1375 33 28
66 56 73 63 7 6 17 12 20 12 4 0 18 10 32 23 14 13 40 32 58 42 17 11 32 23
32 27 0 4 7 8 15 8 8 0 15 5 15 10 0 6 7 10 15 10 8 0 15 3 15 8 0 4 23 18 50
31 28 14 50 28 50 32 0 4 11 10 24 13 14 3 31 12 38 19 7 7 45 28 83 46 39 18
84 39 100 47 17 8 35 15 40 15 6 1 19 6 30 12 11 6 23 12 28 13 4 1 8 2 10 4
1 1 9 3 17 5 8 2 35 11 60 20 25 9 53 19 63 21 9 2 27 6 40 10 431 105 845 -3
999 -262 50 -84 53 -106 10 -76 -28 20 -117 51 -212 74 -94 22 -394 16 -510
-11 -192 -44 -405 -127 -569 -220 -41 -23 -100 -48 -130 -55 -72 -17 -220 -82
-324 -142 -72 -41 -263 -168 -277 -184 -3 -3 -36 -32 -73 -64 -261 -227 -467
-529 -622 -913 -20 -49 -40 -97 -45 -108 -28 -60 -159 -453 -190 -570 -16 -60
-43 -184 -59 -275 -16 -91 -33 -179 -36 -196 -6 -28 -4 -32 18 -36 27 -5 23
-19 72 287 32 195 101 423 236 777 62 163 191 427 263 540 20 32 36 60 36 64
0 6 64 93 94 126 8 9 20 26 26 37 6 12 33 43 60 70 28 26 50 54 50 61 0 7 3
10 6 7 8 -7 44 31 44 45 0 5 5 6 10 3 6 -3 10 0 10 8 0 8 11 18 25 21 14 4 25
10 25 15 0 14 33 46 73 70 21 13 53 37 70 52 18 16 49 38 69 48 21 10 35 20
32 23 -2 3 10 11 28 19 18 7 57 28 86 47 30 18 67 38 83 44 16 5 29 15 29 21
0 6 3 7 7 4 3 -4 11 -3 17 2 6 5 29 14 51 21 22 7 49 18 60 24 19 10 34 14 81
20 12 1 36 14 54 29 17 15 44 27 58 28 110 4 172 -1 208 -15 45 -19 69 -17
129 10 22 10 47 19 56 20 9 2 29 9 45 15 16 7 32 13 37 14 4 2 8 3 10 5 3 2
25 8 62 15 17 3 37 8 45 11 39 14 186 35 290 40 136 7 276 -11 399 -52 l81
-27 24 -76 c22 -70 50 -196 76 -346 5 -33 12 -69 14 -81 2 -12 7 -45 11 -74 4
-29 8 -60 10 -69 2 -9 6 -44 10 -76 12 -115 68 -355 82 -355 18 0 17 15 -11
138 -13 59 -34 175 -46 257 -53 372 -87 533 -144 695 -35 97 -112 270 -124
280 -4 3 -13 17 -21 31 -23 45 -157 184 -228 237 -108 79 -221 127 -357 151
-83 15 -285 12 -381 -5z m712 -181 c-4 -3 -7 0 -7 7 0 7 3 10 7 7 3 -4 3 -10
0 -14z m-767 -8 c0 -3 -2 -5 -5 -5 -3 0 -5 2 -5 5 0 3 2 5 5 5 3 0 5 -2 5 -5z
m840 -40 c0 -3 -2 -5 -5 -5 -3 0 -5 2 -5 5 0 3 2 5 5 5 3 0 5 -2 5 -5z m0 -20
c0 -3 -2 -5 -5 -5 -3 0 -5 2 -5 5 0 3 2 5 5 5 3 0 5 -2 5 -5z m40 -10 c0 -3
-2 -5 -5 -5 -3 0 -5 2 -5 5 0 3 2 5 5 5 3 0 5 -2 5 -5z m-1710 -200 c0 -3 -2
-5 -5 -5 -3 0 -5 2 -5 5 0 3 2 5 5 5 3 0 5 -2 5 -5z m1610 -59 c14 -3 37 -8
53 -12 15 -3 27 -11 27 -17 0 -7 4 -6 10 3 7 12 12 12 22 2 6 -6 25 -12 41
-12 19 0 26 -4 21 -12 -4 -7 -3 -8 5 -4 6 4 25 0 43 -8 17 -9 40 -16 50 -16
32 0 58 -19 51 -37 -5 -12 -3 -14 8 -8 11 6 12 5 2 -5 -8 -9 -16 -10 -25 -3
-15 12 -80 31 -120 35 -10 1 -18 5 -18 8 0 3 -10 5 -22 6 -40 2 -162 13 -203
19 -22 3 -35 2 -28 -2 6 -4 -19 -8 -55 -9 -128 -2 -287 -28 -374 -63 -16 -6
-28 -8 -28 -5 0 2 -14 -3 -30 -11 -17 -9 -35 -13 -40 -10 -6 3 -10 2 -10 -2 0
-5 -8 -9 -19 -10 -10 -1 -40 -12 -67 -25 -46 -22 -53 -23 -84 -10 -19 7 -49
12 -66 10 -19 -2 -30 0 -27 6 4 5 -1 7 -10 3 -39 -15 -13 6 31 25 26 11 56 28
66 37 16 13 18 13 11 1 -6 -11 -4 -11 11 2 15 13 23 14 39 6 19 -11 19 -10 5
7 -8 10 -10 16 -4 12 6 -3 47 7 92 22 45 16 82 26 82 22 0 -3 5 1 10 9 5 8 10
10 10 4 0 -6 6 -11 14 -11 8 0 12 6 9 14 -4 9 0 11 13 6 10 -4 15 -2 11 3 -4
7 6 9 25 6 24 -4 29 -2 23 9 -8 12 -6 12 8 0 9 -7 17 -9 17 -4 0 5 8 10 18 11
9 1 42 6 72 11 56 9 285 7 330 -3z m-1660 -161 c0 -3 -2 -5 -5 -5 -3 0 -5 2
-5 5 0 3 2 5 5 5 3 0 5 -2 5 -5z m-780 -669 c0 -3 -5 -8 -12 -12 -7 -4 -8 -3
-4 4 7 12 16 16 16 8z m-60 -91 c0 -3 -2 -5 -5 -5 -3 0 -5 2 -5 5 0 3 2 5 5 5
3 0 5 -2 5 -5z M4010 6025 c0 -3 2 -5 5 -5 3 0 5 2 5 5 0 3 -2 5 -5 5 -3 0 -5
-2 -5 -5z M3980 6015 c0 -3 2 -5 5 -5 3 0 5 2 5 5 0 3 -2 5 -5 5 -3 0 -5 -2
-5 -5z M2850 6095 c0 -3 2 -5 5 -5 3 0 5 2 5 5 0 3 -2 5 -5 5 -3 0 -5 -2 -5
-5z M4820 6085 c0 -3 2 -5 5 -5 3 0 5 2 5 5 0 3 -2 5 -5 5 -3 0 -5 -2 -5 -5z
M4850 6043 c0 -5 10 -18 23 -29 l22 -19 -20 25 c-11 14 -21 27 -22 29 -2 2 -3
0 -3 -6z M4890 5985 c0 -3 9 -16 21 -28 l21 -22 -13 28 c-11 23 -29 37 -29 22z
M4994 5833 c26 -51 48 -79 91 -112 123 -95 239 -338 299 -631 43 -205 44 -183
-13 -241 -31 -31 -53 -64 -57 -83 -8 -47 -1 -119 14 -124 9 -3 12 16 12 73 l0
76 50 53 c60 63 61 72 26 245 -38 184 -135 448 -183 499 -7 7 -13 19 -13 26 0
7 -8 21 -17 32 -10 10 -36 42 -57 69 -48 61 -167 185 -178 185 -5 0 7 -30 26
-67z M3430 5805 c0 -3 2 -5 5 -5 3 0 5 2 5 5 0 3 -2 5 -5 5 -3 0 -5 -2 -5 -5z
M3730 5780 c0 -6 21 -25 46 -43 57 -40 89 -69 97 -88 4 -11 6 -11 6 -1 1 17
61 -38 61 -55 0 -7 7 -13 15 -13 8 0 15 -3 15 -7 0 -5 16 -24 35 -44 19 -20
32 -39 29 -42 -3 -2 6 -17 20 -32 14 -15 35 -47 46 -70 12 -24 29 -54 39 -67
23 -29 53 -88 46 -88 -4 0 3 -13 15 -30 12 -16 18 -34 15 -40 -3 -5 -2 -10 3
-10 6 0 13 -7 16 -16 3 -8 2 -12 -4 -9 -6 3 -10 2 -10 -3 0 -5 9 -12 21 -15
21 -6 22 -28 2 -34 -10 -4 -48 74 -44 91 1 4 -10 23 -24 41 -17 23 -21 35 -12
38 6 3 4 6 -7 6 -15 1 -16 4 -7 15 9 11 9 16 0 22 -8 4 -9 3 -5 -4 4 -7 5 -12
2 -12 -3 0 -15 20 -27 45 -12 25 -25 42 -30 39 -5 -3 -9 2 -9 10 0 24 -41 44
-88 42 -23 0 -42 2 -42 5 0 8 -125 3 -139 -5 -6 -4 -11 -1 -11 6 0 9 -3 9 -8
2 -4 -6 -31 -14 -60 -18 -29 -4 -90 -20 -135 -37 -45 -16 -89 -31 -97 -33 -9
-2 -32 -14 -53 -26 -22 -13 -44 -19 -54 -16 -10 4 -14 4 -10 0 10 -11 -13 -34
-34 -34 -11 0 -19 -4 -19 -9 0 -5 -11 -12 -25 -15 -14 -4 -25 -11 -25 -16 0
-6 -6 -10 -13 -10 -7 0 -19 -6 -25 -12 -7 -7 -16 -13 -20 -13 -13 -1 -92 -58
-92 -66 0 -5 -5 -9 -11 -9 -7 0 -19 -8 -28 -18 -9 -10 -32 -28 -51 -40 -19
-12 -45 -34 -57 -49 -38 -49 -63 -76 -63 -68 0 4 -13 -10 -29 -31 -16 -21 -43
-54 -59 -73 -16 -18 -45 -58 -63 -88 -19 -30 -51 -81 -71 -113 -20 -32 -34
-61 -31 -64 4 -3 1 -6 -5 -6 -7 0 -11 -3 -10 -7 2 -11 -34 -85 -49 -101 -7 -7
-13 -17 -13 -22 0 -5 -14 -39 -31 -77 -17 -37 -37 -83 -45 -101 -9 -18 -14
-38 -12 -44 2 -6 13 11 23 38 35 89 174 353 227 432 95 141 251 312 338 372
51 34 115 85 118 92 2 4 10 8 17 8 8 0 20 6 27 13 7 6 35 23 61 37 26 13 47
28 47 32 0 5 9 8 20 8 11 0 20 5 20 10 0 6 3 9 8 8 4 -2 41 13 82 32 41 19 78
35 83 36 4 1 9 3 12 4 3 1 10 4 15 5 6 1 11 3 13 5 1 1 9 3 17 5 8 2 41 10 72
18 76 21 199 29 277 20 73 -9 61 5 157 -184 131 -259 174 -400 229 -748 l34
-215 -25 -29 c-13 -16 -24 -32 -24 -35 0 -4 34 -119 76 -257 52 -174 82 -256
97 -269 25 -24 48 -30 40 -10 -3 8 -9 14 -15 14 -5 0 -16 7 -24 15 -14 13 -14
18 0 46 13 25 13 30 1 26 -7 -3 -19 1 -25 9 -10 11 -10 14 0 14 9 0 9 4 2 13
-9 11 -35 89 -37 112 -1 6 -6 19 -12 30 -6 11 -18 49 -27 85 -9 36 -22 86 -30
111 -13 41 -13 50 0 68 9 12 12 26 9 32 -11 17 25 48 62 55 26 5 33 10 28 23
-4 9 -24 106 -46 216 -71 354 -97 443 -201 669 -103 226 -201 377 -320 492
-93 91 -198 157 -198 124z m-580 -665 c0 -3 -2 -5 -5 -5 -3 0 -5 2 -5 5 0 3 2
5 5 5 3 0 5 -2 5 -5z m1135 -102 c15 -32 27 -68 27 -80 0 -13 5 -23 11 -23 6
0 8 -3 4 -6 -3 -3 -1 -18 5 -33 6 -14 10 -36 9 -49 0 -13 3 -20 9 -17 6 4 10
-8 10 -27 0 -19 6 -40 13 -47 10 -10 9 -12 -3 -9 -13 3 -39 74 -44 120 -1 10
-5 21 -9 24 -4 4 -7 15 -7 24 0 10 -9 29 -20 42 -10 14 -17 27 -15 30 3 3 -1
21 -9 40 -9 20 -12 38 -9 42 4 3 1 6 -6 6 -7 0 -9 5 -6 10 10 16 12 13 40 -47z
m-1265 2 c0 -3 -2 -5 -5 -5 -3 0 -5 2 -5 5 0 3 2 5 5 5 3 0 5 -2 5 -5z m1360
-325 c0 -11 -4 -20 -10 -20 -5 0 -10 9 -10 20 0 11 5 20 10 20 6 0 10 -9 10
-20z m14 -82 c-3 -4 -1 -16 5 -25 16 -32 23 -95 9 -88 -7 4 -4 -1 7 -10 17
-14 18 -17 5 -25 -11 -7 -12 -10 -2 -10 9 0 11 -7 7 -21 -6 -16 -4 -20 6 -14
8 5 11 5 7 1 -4 -5 -3 -18 1 -30 19 -50 22 -96 7 -96 -18 0 -28 32 -40 130 -3
19 -10 59 -16 89 -5 30 -8 56 -5 59 2 3 0 13 -6 23 -7 14 -6 19 3 20 10 0 10
2 1 6 -7 2 -13 12 -13 21 0 13 2 12 14 -3 8 -11 12 -23 10 -27z m6 37 c0 -3
-2 -5 -5 -5 -3 0 -5 2 -5 5 0 3 2 5 5 5 3 0 5 -2 5 -5z M4285 4950 c3 -5 8
-10 11 -10 3 0 2 5 -1 10 -3 6 -8 10 -11 10 -3 0 -2 -4 1 -10z M4390 4560 c0
-7 3 -10 7 -7 3 4 3 10 0 14 -4 3 -7 0 -7 -7z M2580 5755 c0 -3 2 -5 5 -5 3 0
5 2 5 5 0 3 -2 5 -5 5 -3 0 -5 -2 -5 -5z M2580 5735 c0 -3 2 -5 5 -5 3 0 5 2
5 5 0 3 -2 5 -5 5 -3 0 -5 -2 -5 -5z M3770 5705 c0 -3 2 -5 5 -5 3 0 5 2 5 5
0 3 -2 5 -5 5 -3 0 -5 -2 -5 -5z M5041 5698 c-1 -4 12 -58 28 -120 16 -62 38
-169 50 -238 22 -130 46 -228 62 -244 13 -14 11 -5 -6 45 -9 24 -29 118 -45
209 -16 91 -36 190 -44 220 -16 59 -44 139 -45 128z M2280 5555 c0 -3 2 -5 5
-5 3 0 5 2 5 5 0 3 -2 5 -5 5 -3 0 -5 -2 -5 -5z M3943 5543 c4 -3 10 -3 14 0
3 4 0 7 -7 7 -7 0 -10 -3 -7 -7z M4010 5465 c0 -3 2 -5 5 -5 3 0 5 2 5 5 0 3
-2 5 -5 5 -3 0 -5 -2 -5 -5z M4150 5465 c0 -3 2 -5 5 -5 3 0 5 2 5 5 0 3 -2 5
-5 5 -3 0 -5 -2 -5 -5z M2320 5435 c0 -3 2 -5 5 -5 3 0 5 2 5 5 0 3 -2 5 -5 5
-3 0 -5 -2 -5 -5z M4310 5315 c0 -3 2 -5 5 -5 3 0 5 2 5 5 0 3 -2 5 -5 5 -3 0
-5 -2 -5 -5z M2170 5265 c0 -3 2 -5 5 -5 3 0 5 2 5 5 0 3 -2 5 -5 5 -3 0 -5
-2 -5 -5z M3360 5265 c0 -3 2 -5 5 -5 3 0 5 2 5 5 0 3 -2 5 -5 5 -3 0 -5 -2
-5 -5z M2190 5255 c0 -3 2 -5 5 -5 3 0 5 2 5 5 0 3 -2 5 -5 5 -3 0 -5 -2 -5
-5z M4390 5240 c0 -7 3 -10 7 -7 3 4 3 10 0 14 -4 3 -7 0 -7 -7z M3210 5195
c0 -3 2 -5 5 -5 3 0 5 2 5 5 0 3 -2 5 -5 5 -3 0 -5 -2 -5 -5z M5190 5070 c0
-7 3 -10 7 -7 3 4 3 10 0 14 -4 3 -7 0 -7 -7z M4560 5045 c0 -3 2 -5 5 -5 3 0
5 2 5 5 0 3 -2 5 -5 5 -3 0 -5 -2 -5 -5z M5206 5030 c4 -14 8 -33 8 -42 0 -10
3 -18 7 -18 9 0 28 -86 32 -145 3 -31 4 -27 5 16 2 50 -35 190 -54 208 -4 3
-3 -5 2 -19z M4570 5020 c0 -7 3 -10 7 -7 3 4 3 10 0 14 -4 3 -7 0 -7 -7z
M1900 4995 c0 -3 2 -5 5 -5 3 0 5 2 5 5 0 3 -2 5 -5 5 -3 0 -5 -2 -5 -5z
M5530 4855 c0 -3 2 -5 5 -5 3 0 5 2 5 5 0 3 -2 5 -5 5 -3 0 -5 -2 -5 -5z
M5540 4815 c0 -3 2 -5 5 -5 3 0 5 2 5 5 0 3 -2 5 -5 5 -3 0 -5 -2 -5 -5z
M4907 4758 c-3 -13 -13 -81 -22 -153 -9 -71 -25 -187 -36 -258 -22 -147 -23
-176 -8 -226 13 -42 59 -85 59 -55 0 10 -3 15 -6 11 -11 -11 -33 20 -45 65
-11 38 -7 72 25 268 21 124 42 250 46 280 5 30 11 63 15 73 5 11 2 17 -8 17
-8 0 -17 -10 -20 -22z M5057 4772 c-5 -7 -13 -10 -18 -6 -6 3 -5 -3 2 -13 12
-20 7 -61 -47 -439 -16 -113 -18 -222 -5 -243 5 -8 8 20 8 70 0 47 16 202 37
348 36 256 40 311 23 283z M4956 4761 c-3 -4 6 -6 19 -3 14 2 25 6 25 8 0 8
-39 4 -44 -5z M5240 4750 c-13 -8 -13 -11 3 -27 16 -16 17 -16 17 10 0 30 0
30 -20 17z M5236 4672 c-3 -3 -6 -15 -6 -26 0 -13 3 -16 8 -10 10 17 380 -330
389 -364 6 -24 -33 -419 -44 -449 -3 -7 -9 -13 -14 -13 -5 0 -9 -4 -9 -10 0
-17 27 -11 35 8 12 31 55 443 49 468 -4 14 -74 88 -168 175 -88 84 -178 169
-198 189 -20 21 -39 35 -42 32z M5583 4498 c-1 -25 -8 -47 -18 -54 -13 -10
-13 -13 -1 -23 17 -14 36 31 36 85 0 49 -15 42 -17 -8z M5520 4465 c0 -3 2 -5
5 -5 3 0 5 2 5 5 0 3 -2 5 -5 5 -3 0 -5 -2 -5 -5z M2485 4169 c-4 -6 -5 -12
-2 -15 2 -3 7 2 10 11 7 17 1 20 -8 4z M1710 4140 c0 -7 3 -10 7 -7 3 4 3 10
0 14 -4 3 -7 0 -7 -7z M2468 4125 c-3 -11 -9 -29 -13 -40 -3 -11 1 -7 10 8 9
16 15 33 12 40 -2 6 -6 3 -9 -8z M1690 4085 c0 -3 2 -5 5 -5 3 0 5 2 5 5 0 3
-2 5 -5 5 -3 0 -5 -2 -5 -5z M2440 4050 c0 -7 3 -10 7 -7 3 4 3 10 0 14 -4 3
-7 0 -7 -7z M5015 4040 c3 -5 8 -10 11 -10 3 0 2 5 -1 10 -3 6 -8 10 -11 10
-3 0 -2 -4 1 -10z M4851 3952 c-77 -104 -79 -113 -71 -307 5 -126 8 -146 17
-123 7 16 12 85 12 173 1 160 0 158 71 255 61 84 64 90 48 90 -7 0 -42 -39
-77 -88z M5140 4035 c0 -3 2 -5 5 -5 3 0 5 2 5 5 0 3 -2 5 -5 5 -3 0 -5 -2 -5
-5z M2430 4015 c0 -3 2 -5 5 -5 3 0 5 2 5 5 0 3 -2 5 -5 5 -3 0 -5 -2 -5 -5z
M5170 4015 c0 -3 2 -5 5 -5 3 0 5 2 5 5 0 3 -2 5 -5 5 -3 0 -5 -2 -5 -5z
M5190 4005 c0 -3 2 -5 5 -5 3 0 5 2 5 5 0 3 -2 5 -5 5 -3 0 -5 -2 -5 -5z
M2420 3990 c0 -7 3 -10 7 -7 3 4 3 10 0 14 -4 3 -7 0 -7 -7z M5240 3965 c0 -3
2 -5 5 -5 3 0 5 2 5 5 0 3 -2 5 -5 5 -3 0 -5 -2 -5 -5z M5005 3923 c-38 -16
-59 -33 -50 -41 7 -7 95 39 95 49 0 11 4 12 -45 -8z M5080 3928 c1 -16 150
-119 162 -112 5 3 -6 16 -24 28 -18 12 -57 39 -85 59 -29 21 -53 31 -53 25z
M2400 3925 c0 -3 2 -5 5 -5 3 0 5 2 5 5 0 3 -2 5 -5 5 -3 0 -5 -2 -5 -5z
M2387 3896 c-4 -10 -7 -25 -6 -34 0 -11 4 -9 10 7 5 13 8 29 6 35 -2 5 -6 2
-10 -8z M4940 3845 c0 -3 2 -5 5 -5 3 0 5 2 5 5 0 3 -2 5 -5 5 -3 0 -5 -2 -5
-5z M2370 3830 c0 -7 3 -10 7 -7 3 4 3 10 0 14 -4 3 -7 0 -7 -7z M4932 3810
c0 -14 2 -19 5 -12 2 6 2 18 0 25 -3 6 -5 1 -5 -13z M5540 3815 c0 -3 2 -5 5
-5 3 0 5 2 5 5 0 3 -2 5 -5 5 -3 0 -5 -2 -5 -5z M2360 3800 c0 -7 3 -10 7 -7
3 4 3 10 0 14 -4 3 -7 0 -7 -7z M5255 3783 c21 -53 46 -131 48 -151 1 -13 10
-31 21 -40 18 -16 19 -16 12 13 -18 82 -61 195 -74 195 -9 0 -12 -6 -7 -17z
M4923 3735 c0 -27 2 -38 4 -22 2 15 2 37 0 50 -2 12 -4 0 -4 -28z M2340 3735
c0 -3 2 -5 5 -5 3 0 5 2 5 5 0 3 -2 5 -5 5 -3 0 -5 -2 -5 -5z M5566 3705 c-3
-8 -1 -15 4 -15 13 0 22 18 11 24 -5 3 -11 -1 -15 -9z M5415 3691 c-2 -4 24
-13 59 -19 79 -15 96 -15 96 -1 0 6 -7 8 -16 5 -8 -3 -25 1 -37 8 -23 15 -94
19 -102 7z M5405 3582 c2 -48 10 -92 19 -109 19 -35 19 -22 2 90 -17 112 -25
119 -21 19z M4580 3591 c0 -11 -5 -42 -11 -69 l-12 -49 -83 -12 c-134 -19
-195 -47 -215 -99 -20 -53 58 -113 171 -131 63 -10 76 -7 83 19 6 25 1 29 -31
21 -71 -19 -202 29 -202 74 0 27 19 43 30 26 5 -9 18 -7 48 9 23 12 74 27 113
34 63 11 73 15 87 41 8 17 19 33 23 36 5 3 10 18 11 35 1 16 5 34 10 40 10 13
0 44 -13 44 -5 0 -9 -9 -9 -19z M4911 3534 c0 -11 3 -14 6 -6 3 7 2 16 -1 19
-3 4 -6 -2 -5 -13z M5380 3535 c0 -3 2 -5 5 -5 3 0 5 2 5 5 0 3 -2 5 -5 5 -3
0 -5 -2 -5 -5z M4902 3480 c0 -14 2 -19 5 -12 2 6 2 18 0 25 -3 6 -5 1 -5 -13z
M1420 3445 c-23 -24 -25 -37 -32 -188 -9 -172 -5 -200 32 -210 l22 -6 -22 24
c-23 25 -21 65 4 65 10 0 15 42 19 167 4 91 6 168 4 170 -2 1 -14 -8 -27 -22z
m10 -40 c0 -3 -2 -5 -5 -5 -3 0 -5 2 -5 5 0 3 2 5 5 5 3 0 5 -2 5 -5z m-5 -35
c3 -5 4 -10 1 -10 -3 0 -8 5 -11 10 -3 6 -4 10 -1 10 3 0 8 -4 11 -10z M1610
3465 c0 -3 2 -5 5 -5 3 0 5 2 5 5 0 3 -2 5 -5 5 -3 0 -5 -2 -5 -5z M2270 3460
c0 -7 3 -10 7 -7 3 4 3 10 0 14 -4 3 -7 0 -7 -7z M4882 3390 c0 -14 2 -19 5
-12 2 6 2 18 0 25 -3 6 -5 1 -5 -13z M4531 3350 c-13 -62 -14 -70 -2 -70 8 0
31 82 31 110 0 30 -20 2 -29 -40z M2250 3370 c0 -7 3 -10 7 -7 3 4 3 10 0 14
-4 3 -7 0 -7 -7z M1610 3360 c0 -7 3 -10 7 -7 3 4 3 10 0 14 -4 3 -7 0 -7 -7z
M4871 3344 c0 -11 3 -14 6 -6 3 7 2 16 -1 19 -3 4 -6 -2 -5 -13z M1662 3310
c-6 -19 -23 -80 -37 -135 -15 -55 -34 -116 -44 -135 -17 -36 -17 -80 0 -80 5
0 9 11 9 24 0 13 9 48 19 78 30 81 74 255 69 270 -3 7 -10 -3 -16 -22z M4861
3305 c-1 -18 -25 -111 -46 -185 -6 -19 -5 -22 4 -14 14 13 53 182 47 204 -2
10 -4 8 -5 -5z M3885 3276 c-245 -63 -484 -266 -672 -571 -51 -83 -163 -310
-163 -331 0 -3 -6 -20 -14 -37 -88 -196 -142 -648 -103 -872 40 -231 121 -410
234 -516 61 -59 390 -276 400 -265 7 7 83 -95 83 -110 0 -7 6 -14 13 -17 6 -2
9 -7 6 -11 -13 -14 -84 45 -84 70 -1 25 -30 62 -41 51 -8 -8 -9 -49 -2 -92 5
-28 45 -60 101 -81 9 -3 17 -9 18 -13 0 -3 2 -16 3 -28 4 -33 10 -35 34 -13
18 17 20 24 11 44 -8 17 -8 29 0 45 12 21 -2 31 -14 11 -11 -19 -22 -10 -20
15 2 14 -3 29 -12 34 -14 7 -13 12 3 37 11 15 13 25 7 21 -9 -6 -13 -2 -13 12
0 26 -16 36 -24 15 -6 -15 -8 -15 -25 0 -14 13 -18 27 -15 55 4 29 1 38 -11
38 -19 0 -21 -53 -2 -60 8 -4 8 -6 0 -6 -6 -1 -34 17 -62 39 -28 22 -53 40
-56 40 -3 0 -27 16 -55 36 -27 20 -50 32 -50 27 0 -4 -5 0 -11 10 -5 9 -17 17
-24 17 -8 0 -15 4 -15 8 0 4 -15 16 -32 27 -56 32 -171 154 -163 173 3 9 3 13
-1 10 -3 -4 -12 -2 -18 5 -18 18 -76 140 -76 159 0 9 -4 20 -10 23 -5 3 -10
16 -10 28 0 12 -7 40 -15 62 -8 22 -14 61 -15 87 0 26 -4 49 -8 52 -21 13 -4
382 24 515 7 36 11 68 8 73 -3 4 -1 8 5 8 5 0 10 8 9 18 0 18 49 190 60 207 4
6 8 17 9 26 1 8 9 29 18 45 8 16 15 36 15 45 0 9 6 22 14 28 8 7 17 24 21 39
4 15 10 29 15 32 4 3 10 14 11 25 2 11 14 34 26 52 13 17 23 34 23 38 0 9 95
147 119 172 12 12 21 26 21 31 0 4 17 26 38 49 20 22 51 56 67 74 53 59 105
100 117 93 6 -4 8 -3 4 4 -10 16 158 122 239 150 119 41 198 46 347 21 57 -10
117 -18 133 -18 l30 0 -25 10 c-99 41 -328 59 -425 35z m-240 -2646 c3 -5 4
-10 1 -10 -3 0 -8 5 -11 10 -3 6 -4 10 -1 10 3 0 8 -4 11 -10z m-42 -61 c35
-19 63 -49 46 -49 -26 0 -68 24 -73 42 -5 21 -2 22 27 7z M1846 3113 c-4 -9
-2 -21 4 -27 7 -7 10 -5 10 8 0 9 5 14 10 11 6 -3 10 1 10 9 0 21 -26 20 -34
-1z M1440 3105 c0 -3 2 -5 5 -5 3 0 5 2 5 5 0 3 -2 5 -5 5 -3 0 -5 -2 -5 -5z
M4310 3050 c-30 -22 -61 -43 -69 -47 -40 -19 -271 -267 -271 -290 0 -5 -12
-22 -28 -38 -15 -17 -28 -35 -29 -40 -1 -6 -25 -46 -54 -90 -48 -73 -179 -341
-179 -366 0 -6 -6 -25 -14 -42 -133 -290 -193 -838 -126 -1142 23 -105 49
-171 50 -128 0 12 -10 61 -22 110 -34 131 -33 542 0 713 51 258 126 487 232
703 52 108 201 340 260 407 79 89 172 178 243 231 43 33 75 59 70 59 -4 0 -33
-18 -63 -40z M1474 3039 c-14 -23 -37 -51 -50 -63 -18 -16 -26 -37 -33 -90 -6
-38 -14 -72 -18 -75 -5 -3 -19 -19 -31 -35 -20 -26 -22 -40 -22 -153 l0 -125
-51 -56 c-49 -54 -92 -126 -135 -229 -71 -169 -73 -442 -3 -657 141 -436 490
-732 859 -729 121 1 156 9 355 89 77 31 151 61 165 66 14 6 41 18 59 27 19 9
39 15 43 13 4 -1 8 5 8 13 0 13 -5 12 -37 -3 -21 -9 -40 -19 -43 -22 -3 -3 -9
-5 -15 -5 -5 -1 -30 -7 -55 -14 -65 -20 -193 -19 -270 2 -155 42 -293 127
-428 265 -236 242 -366 560 -366 892 1 327 119 531 376 648 64 29 68 32 33 27
-22 -4 -44 -11 -49 -16 -6 -5 -16 -9 -22 -9 -24 0 -274 -178 -282 -201 -2 -5
-8 -9 -14 -9 -6 0 -27 -13 -48 -30 -21 -16 -42 -30 -48 -30 -6 0 -13 -6 -16
-12 -3 -7 -3 2 0 21 3 18 7 61 9 95 3 80 15 155 26 162 5 3 9 -3 10 -13 0 -16
1 -15 9 2 4 12 15 26 23 33 13 11 15 1 16 -84 1 -54 3 -100 6 -102 3 -3 5 42
5 99 0 87 3 109 21 138 26 42 17 53 -13 16 -52 -65 -50 -64 -43 -5 6 56 34
107 55 102 6 -1 9 2 6 7 -5 8 27 58 47 72 5 4 4 9 -2 13 -6 4 -22 -12 -37 -35z
m-24 -494 c0 -3 -2 -5 -5 -5 -3 0 -5 2 -5 5 0 3 2 5 5 5 3 0 5 -2 5 -5z m-10
-29 c-5 -7 -7 -16 -3 -19 3 -4 2 -7 -3 -7 -5 0 -15 -19 -22 -42 -61 -210 -49
-479 33 -708 32 -87 114 -259 135 -280 3 -3 23 -32 45 -65 22 -33 48 -66 57
-73 10 -7 18 -19 18 -27 0 -7 4 -15 9 -17 6 -1 40 -33 78 -69 58 -56 131 -110
208 -156 70 -42 242 -102 298 -104 18 -1 24 -3 14 -6 -9 -2 -15 -8 -13 -12 3
-4 -5 -8 -17 -8 -12 -1 -23 -7 -25 -13 -2 -5 -14 -10 -27 -10 -13 0 -27 -5
-30 -10 -4 -6 -11 -8 -16 -5 -5 4 -9 2 -9 -3 0 -6 -9 -8 -20 -5 -11 3 -20 1
-20 -4 0 -23 -240 -23 -320 0 -169 49 -343 175 -460 330 -19 26 -43 57 -52 68
-10 12 -20 30 -23 40 -4 11 -11 19 -16 19 -5 0 -8 3 -7 8 1 4 -15 40 -35 81
-20 40 -39 83 -41 95 -2 11 -13 50 -24 86 -60 190 -53 459 15 610 9 19 16 41
16 48 0 6 3 12 6 12 3 0 17 20 30 45 13 25 28 45 32 45 5 0 9 7 9 15 0 7 20
31 45 52 25 20 48 45 51 55 3 10 12 18 20 18 8 0 17 6 19 13 3 6 17 13 30 13
20 2 23 -1 15 -10z m-10 -1411 c0 -3 -2 -5 -5 -5 -3 0 -5 2 -5 5 0 3 2 5 5 5
3 0 5 -2 5 -5z M1270 2385 c0 -3 2 -5 5 -5 3 0 5 2 5 5 0 3 -2 5 -5 5 -3 0 -5
-2 -5 -5z M4438 3007 c-51 -38 -96 -73 -99 -79 -3 -5 -37 -41 -74 -79 -58 -59
-67 -73 -58 -87 6 -9 16 -16 23 -14 11 2 111 -24 190 -50 30 -9 251 -189 410
-332 55 -49 97 -86 223 -191 109 -91 119 -109 89 -170 l-21 -43 29 -110 29
-110 -34 -80 c-37 -87 -80 -253 -90 -347 -4 -33 -10 -62 -15 -65 -4 -3 -44
-47 -89 -99 l-81 -94 0 -67 c0 -96 -11 -105 -136 -113 -55 -3 -260 -18 -458
-32 l-358 -26 -85 50 c-46 28 -87 51 -89 51 -3 0 -14 9 -26 20 -37 34 -49 3
-28 -72 10 -33 38 -56 63 -50 4 1 7 -2 7 -8 0 -5 21 -22 48 -37 76 -45 100
-71 111 -123 6 -26 21 -80 35 -121 16 -47 22 -79 16 -89 -7 -13 1 -21 35 -40
l44 -24 343 12 c594 21 628 24 628 39 0 7 -4 13 -8 13 -18 0 -91 286 -94 366
-1 29 -18 52 -18 24 0 -45 36 -231 57 -297 15 -45 24 -86 20 -90 -4 -4 -97
-10 -205 -14 -322 -12 -686 -22 -707 -21 -23 1 -65 46 -65 68 0 8 -9 35 -20
59 -11 24 -25 68 -31 97 -6 29 -20 70 -30 90 -19 37 -28 107 -10 80 9 -14 30
-13 604 28 148 11 291 20 318 20 27 0 49 5 49 10 0 6 -7 10 -15 10 -11 0 -10
5 6 21 17 17 20 30 16 65 -2 24 0 44 5 44 14 0 51 -20 74 -41 20 -19 21 -19
37 -1 21 23 120 232 113 239 -9 9 -29 -12 -48 -49 -29 -59 -58 -124 -58 -131
0 -4 -8 -15 -17 -25 -17 -18 -19 -17 -56 11 -37 29 -38 30 -21 55 9 14 27 36
38 48 12 12 27 30 34 40 7 11 10 13 6 5 -5 -9 -3 -12 4 -7 7 4 12 14 12 22 0
9 5 12 12 8 7 -5 9 -2 5 8 -4 11 1 18 14 21 12 3 17 11 13 20 -9 23 21 27 55
6 27 -17 31 -24 31 -64 0 -49 27 -174 41 -189 5 -6 9 -18 9 -28 0 -21 55 -52
78 -43 14 5 11 9 -13 19 -59 25 -82 86 -96 250 -8 96 -7 134 6 200 26 142 96
323 157 409 11 16 18 31 15 34 -3 2 -19 -19 -36 -49 l-31 -53 0 109 c0 103 -7
144 -34 208 -6 14 -101 104 -211 198 -110 95 -280 242 -379 327 -98 85 -192
160 -210 168 -31 13 -145 49 -158 50 -30 1 55 115 85 115 5 0 7 7 4 14 -4 10
-1 13 8 10 7 -3 16 3 19 14 4 10 18 24 32 31 14 6 22 16 19 21 -3 6 1 10 10
10 10 0 31 11 47 25 27 23 36 25 77 19 25 -4 53 -7 61 -7 8 0 25 -6 38 -13
l24 -12 -21 -21 c-12 -12 -17 -21 -12 -21 5 0 17 7 25 15 8 9 29 21 46 26 35
13 49 6 120 -60 25 -22 48 -41 52 -41 3 0 41 -28 85 -63 147 -117 166 -131
162 -120 -2 6 -62 57 -134 113 -162 128 -205 162 -221 178 -7 6 -17 12 -23 12
-6 0 -11 5 -11 10 0 6 -17 10 -37 10 -21 0 -75 9 -120 19 l-83 18 -92 -70z
m777 -970 c8 -13 18 -38 21 -56 8 -36 7 -36 -63 -10 -22 8 -23 39 -2 39 5 0 9
11 9 25 0 31 15 32 35 2z m16 -119 c5 -9 7 -56 4 -104 -3 -63 -1 -90 8 -96 8
-5 8 -11 2 -15 -13 -10 -40 -70 -64 -141 -11 -31 -25 -70 -32 -87 -14 -36 -20
-87 -9 -80 9 6 1 -35 -10 -50 -4 -5 -11 -25 -15 -42 -4 -22 -12 -33 -23 -33
-12 0 -14 2 -4 8 7 5 10 22 8 40 -2 21 0 29 8 25 6 -4 5 0 -2 9 -9 12 -10 22
-4 35 5 10 8 26 7 36 -2 9 1 15 6 11 8 -4 14 24 10 48 0 3 9 33 20 65 11 32
22 66 24 77 8 34 39 111 47 116 4 3 -2 30 -13 60 -11 30 -19 64 -16 77 2 12 0
20 -4 17 -5 -3 -9 6 -9 20 0 22 4 25 26 24 14 -2 30 -10 35 -20z m-161 -793
c0 -3 -2 -5 -5 -5 -3 0 -5 2 -5 5 0 3 2 5 5 5 3 0 5 -2 5 -5z m-1350 -210 c0
-3 -2 -5 -5 -5 -3 0 -5 2 -5 5 0 3 2 5 5 5 3 0 5 -2 5 -5z m98 -57 c12 -6 22
-18 22 -27 0 -13 -2 -13 -9 -2 -6 9 -11 10 -15 2 -6 -9 7 -16 17 -8 2 1 12 -5
22 -13 17 -14 18 -13 12 3 -5 12 -3 17 5 15 16 -6 16 -68 1 -68 -7 0 -13 8
-13 18 0 14 -2 15 -10 2 -7 -10 -13 -11 -17 -4 -14 18 -80 54 -87 47 -4 -4 -4
1 0 11 5 14 4 17 -4 12 -17 -10 -15 3 3 21 14 14 14 17 -2 30 -10 8 -2 5 17
-7 19 -11 45 -26 58 -32z m1052 37 c0 -3 -2 -5 -5 -5 -3 0 -5 2 -5 5 0 3 2 5
5 5 3 0 5 -2 5 -5z m-1140 -20 c0 -3 -2 -5 -5 -5 -3 0 -5 2 -5 5 0 3 2 5 5 5
3 0 5 -2 5 -5z M5190 2045 c0 -3 2 -5 5 -5 3 0 5 2 5 5 0 3 -2 5 -5 5 -3 0 -5
-2 -5 -5z M5100 1315 c0 -3 2 -5 5 -5 3 0 5 2 5 5 0 3 -2 5 -5 5 -3 0 -5 -2
-5 -5z M3757 864 c-11 -12 3 -23 20 -17 11 4 14 3 9 -5 -5 -8 -2 -10 9 -6 14
6 14 8 -2 20 -20 15 -27 17 -36 8z m13 -9 c0 -3 -2 -5 -5 -5 -3 0 -5 2 -5 5 0
3 2 5 5 5 3 0 5 -2 5 -5z M2067 3048 c-8 -27 8 -47 24 -31 13 13 9 45 -7 50
-6 2 -14 -6 -17 -19z M1560 3055 c0 -3 2 -5 5 -5 3 0 5 2 5 5 0 3 -2 5 -5 5
-3 0 -5 -2 -5 -5z M1504 2988 c-4 -7 -3 -8 4 -4 12 7 16 16 8 16 -3 0 -8 -5
-12 -12z M4630 2939 c0 -5 5 -7 10 -4 6 3 10 8 10 11 0 2 -4 4 -10 4 -5 0 -10
-5 -10 -11z M4578 2901 c-16 -15 -28 -30 -28 -34 0 -3 -19 -24 -42 -46 -24
-22 -39 -43 -35 -47 4 -4 14 1 21 12 8 10 39 45 70 78 31 32 56 60 56 62 0 10
-17 0 -42 -25z M1970 2890 c-76 -35 -86 -36 -99 -12 -9 14 -10 11 -11 -16 0
-33 1 -33 33 -26 17 4 43 8 57 8 14 1 36 9 51 18 14 10 39 21 56 24 29 6 31 4
26 -16 -3 -12 -15 -26 -27 -30 -19 -8 -19 -9 6 -9 23 -1 28 4 34 33 12 66 -23
73 -126 26z M2115 2900 c3 -5 8 -10 11 -10 2 0 4 5 4 10 0 6 -5 10 -11 10 -5
0 -7 -4 -4 -10z M2111 2834 c0 -11 3 -14 6 -6 3 7 2 16 -1 19 -3 4 -6 -2 -5
-13z M2185 2795 c33 -14 90 -41 127 -61 38 -19 68 -31 68 -27 -1 11 -188 101
-225 108 -17 3 -4 -5 30 -20z M4450 2755 c0 -3 2 -5 5 -5 3 0 5 2 5 5 0 3 -2
5 -5 5 -3 0 -5 -2 -5 -5z M5170 2702 c1 -11 90 -74 90 -63 0 5 -13 18 -30 28
-16 9 -30 20 -30 24 0 4 -7 9 -15 13 -8 3 -15 2 -15 -2z M2409 2681 c13 -12
28 -21 35 -21 12 0 -5 14 -39 31 -16 8 -15 6 4 -10z M2450 2645 c0 -3 2 -5 5
-5 3 0 5 2 5 5 0 3 -2 5 -5 5 -3 0 -5 -2 -5 -5z M4927 2643 c-10 -9 -9 -23 2
-23 5 0 11 7 15 15 5 15 -5 20 -17 8z M4980 2638 c1 -7 7 -31 15 -53 8 -22 15
-49 15 -61 0 -25 94 -54 113 -35 18 18 -16 71 -78 119 -60 46 -65 48 -65 30z
m90 -110 c0 -19 -2 -20 -10 -8 -13 19 -13 30 0 30 6 0 10 -10 10 -22z M2480
2627 c0 -2 15 -16 33 -33 l32 -29 -29 33 c-28 30 -36 37 -36 29z M5296 2604
c17 -16 48 -42 69 -59 22 -16 57 -45 78 -64 20 -19 40 -32 42 -29 5 4 -116
107 -180 152 l-40 29 31 -29z M4955 2590 c-10 -11 -13 -20 -7 -20 6 0 16 9 22
20 6 11 9 20 7 20 -2 0 -12 -9 -22 -20z M2550 2565 c0 -3 2 -5 5 -5 3 0 5 2 5
5 0 3 -2 5 -5 5 -3 0 -5 -2 -5 -5z M1995 2455 c-22 -8 -45 -22 -52 -32 -7 -9
-13 -13 -13 -8 0 14 -55 -46 -84 -93 -129 -205 -30 -586 203 -778 101 -84 139
-99 246 -96 132 4 139 5 153 25 11 14 17 15 28 6 11 -9 14 -7 14 10 0 17 5 22
23 19 13 -2 21 2 20 9 -2 7 3 12 10 10 7 -1 11 6 9 17 -3 13 1 17 11 13 17 -6
44 46 38 77 -1 11 2 16 8 12 10 -7 15 8 14 42 -1 6 3 12 8 12 17 0 13 171 -6
264 -14 64 -56 165 -102 241 -50 84 -218 227 -280 240 -10 2 -31 8 -46 14 -39
15 -154 13 -202 -4z m197 -20 c31 -8 75 -24 99 -36 49 -25 188 -159 212 -205
90 -169 108 -233 103 -374 -2 -58 -8 -116 -15 -127 -6 -12 -11 -31 -11 -43 0
-14 -4 -19 -12 -14 -8 5 -9 2 -5 -9 4 -11 1 -17 -9 -17 -8 0 -13 -4 -10 -8 5
-8 -47 -72 -59 -72 -4 0 -16 -10 -27 -22 -11 -13 -17 -17 -13 -10 7 14 -11 17
-20 2 -4 -6 -11 -8 -16 -5 -5 4 -9 2 -9 -3 0 -5 -18 -9 -41 -10 -40 -2 -41 -1
-34 25 25 100 26 224 4 306 -6 23 -12 47 -13 53 -1 7 -8 19 -15 28 -8 9 -11
19 -8 23 11 10 -73 154 -115 195 -15 14 -24 29 -20 33 4 4 2 5 -3 3 -6 -1 -23
8 -37 22 -43 40 -56 50 -68 50 -5 0 -10 4 -10 9 0 9 -95 51 -116 51 -8 0 -14
5 -14 12 0 6 -3 8 -7 5 -3 -4 -12 -2 -19 4 -14 11 -8 39 7 39 5 0 23 16 40 35
17 19 38 35 46 35 8 0 11 5 7 12 -4 6 -3 9 2 6 5 -3 36 0 69 7 78 17 72 17
137 0z m-292 -80 c0 -3 -2 -5 -5 -5 -3 0 -5 2 -5 5 0 3 2 5 5 5 3 0 5 -2 5 -5z
m66 -119 c212 -97 359 -358 341 -606 -6 -82 -32 -169 -53 -177 -19 -7 -135 51
-193 98 -137 107 -242 310 -258 494 -5 64 9 194 24 218 9 15 77 1 139 -27z
m671 -438 c-3 -8 -6 -5 -6 6 -1 11 2 17 5 13 3 -3 4 -12 1 -19z m-60 -225 c-4
-3 -7 0 -7 7 0 7 3 10 7 7 3 -4 3 -10 0 -14z M1880 2315 c0 -3 2 -5 5 -5 3 0
5 2 5 5 0 3 -2 5 -5 5 -3 0 -5 -2 -5 -5z M5563 2463 c-81 -8 -44 -22 40 -16
103 7 129 -4 210 -90 41 -43 50 -50 28 -21 -90 122 -131 140 -278 127z M1215
2435 c-48 -36 -146 -142 -152 -165 -4 -13 -21 -50 -39 -81 -133 -226 -134
-575 -3 -869 20 -44 36 -67 41 -62 6 6 0 24 -15 48 -14 22 -28 55 -32 74 -4
19 -10 40 -13 45 -4 6 -8 15 -9 20 -1 6 -9 34 -17 63 -20 72 -38 245 -33 313
7 86 28 189 39 189 5 0 7 4 3 10 -3 5 8 39 24 75 17 36 29 68 29 72 -1 3 9 16
21 29 12 13 20 28 17 33 -4 5 -2 12 4 16 6 4 8 10 5 14 -2 5 13 25 35 45 22
20 40 40 40 44 0 4 20 29 45 55 44 47 48 60 10 32z M4230 2385 c0 -3 2 -5 5
-5 3 0 5 2 5 5 0 3 -2 5 -5 5 -3 0 -5 -2 -5 -5z M5561 2364 c0 -11 3 -14 6 -6
3 7 2 16 -1 19 -3 4 -6 -2 -5 -13z M2710 2365 c0 -3 2 -5 5 -5 3 0 5 2 5 5 0
3 -2 5 -5 5 -3 0 -5 -2 -5 -5z M2725 2330 c3 -5 8 -10 11 -10 3 0 2 5 -1 10
-3 6 -8 10 -11 10 -3 0 -2 -4 1 -10z M4200 2325 c0 -3 2 -5 5 -5 3 0 5 2 5 5
0 3 -2 5 -5 5 -3 0 -5 -2 -5 -5z M5580 2315 c0 -3 2 -5 5 -5 3 0 5 2 5 5 0 3
-2 5 -5 5 -3 0 -5 -2 -5 -5z M2740 2305 c0 -3 2 -5 5 -5 3 0 5 2 5 5 0 3 -2 5
-5 5 -3 0 -5 -2 -5 -5z M4190 2305 c0 -3 2 -5 5 -5 3 0 5 2 5 5 0 3 -2 5 -5 5
-3 0 -5 -2 -5 -5z M5898 2284 l-3 -29 -90 2 c-79 2 -118 7 -202 26 -20 5 -21
2 -18 -34 2 -21 6 -47 9 -57 3 -9 10 -50 16 -91 10 -74 10 -75 -17 -104 -22
-23 -25 -31 -14 -35 8 -3 25 -16 38 -28 l24 -24 22 23 c12 13 57 55 100 92 79
69 124 121 114 132 -6 5 -53 -36 -150 -130 -21 -20 -43 -35 -48 -31 -5 3 -13
-3 -17 -13 -4 -10 -14 -19 -23 -19 -15 -1 -16 2 -2 33 8 20 12 42 9 49 -3 8 0
26 6 40 8 18 9 27 1 32 -11 7 -37 112 -29 119 2 2 39 0 81 -6 42 -6 101 -11
131 -11 40 0 54 -4 54 -14 0 -8 -6 -16 -12 -19 -10 -3 -8 -9 5 -24 29 -33 26
-39 -48 -116 -22 -23 -66 -64 -98 -91 -51 -42 -58 -52 -52 -75 12 -48 48 -56
43 -9 -2 21 2 32 12 35 13 4 13 3 0 -6 -8 -5 -12 -13 -8 -16 9 -9 39 25 32 36
-3 6 4 18 15 28 12 10 21 23 21 30 0 6 7 11 16 11 8 0 12 5 9 10 -3 6 3 10 14
10 12 0 21 5 21 10 0 6 5 10 10 10 6 0 10 -6 10 -13 0 -8 11 -19 25 -25 23
-10 25 -17 25 -71 0 -56 -1 -59 -22 -53 -11 3 -19 1 -16 -4 3 -5 0 -15 -8 -22
-8 -7 -14 -9 -14 -5 0 4 -6 1 -13 -7 -7 -9 -30 -27 -52 -40 -22 -13 -42 -27
-45 -31 -8 -12 -32 6 -30 22 5 32 -1 49 -16 49 -12 0 -15 -6 -10 -22 3 -13 6
-43 6 -67 0 -43 0 -43 23 -28 12 9 51 34 87 56 36 22 72 49 80 60 8 12 18 21
22 21 12 0 10 -48 -2 -55 -20 -12 -9 -25 21 -25 31 0 31 1 26 38 -3 20 -13
107 -23 192 -9 85 -21 158 -27 162 -10 6 -4 17 38 74 7 10 1 22 -22 45 l-31
32 -4 -29z m22 -149 c0 -3 -2 -5 -5 -5 -3 0 -5 2 -5 5 0 3 2 5 5 5 3 0 5 -2 5
-5z m-14 -95 c0 -22 -11 -26 -22 -9 -5 9 5 22 21 29 1 0 1 -9 1 -20z M2760
2275 c0 -3 2 -5 5 -5 3 0 5 2 5 5 0 3 -2 5 -5 5 -3 0 -5 -2 -5 -5z M2770 2255
c0 -3 2 -5 5 -5 3 0 5 2 5 5 0 3 -2 5 -5 5 -3 0 -5 -2 -5 -5z M3770 2255 c0
-3 2 -5 5 -5 3 0 5 2 5 5 0 3 -2 5 -5 5 -3 0 -5 -2 -5 -5z M4160 2245 c0 -3 2
-5 5 -5 3 0 5 2 5 5 0 3 -2 5 -5 5 -3 0 -5 -2 -5 -5z M5497 2233 c-10 -10 -48
-56 -86 -103 -57 -69 -69 -89 -64 -111 4 -19 -1 -30 -15 -41 -16 -11 -22 -30
-27 -96 -8 -88 -4 -99 20 -53 8 16 40 56 70 89 50 54 56 66 75 146 11 48 20
96 20 107 0 11 7 33 15 49 18 34 16 37 -8 13z m-68 -205 c-7 -24 -13 -47 -14
-53 0 -5 -6 -9 -13 -7 -7 1 -11 -1 -9 -6 1 -4 -10 -21 -25 -37 -25 -26 -31
-26 -27 3 1 4 6 6 12 4 6 -2 4 5 -4 14 -9 12 -9 15 -1 10 7 -4 12 -2 12 8 0 8
5 16 11 18 6 2 12 20 14 40 1 20 11 45 23 59 12 12 23 28 23 33 1 6 4 -1 6
-16 2 -14 -1 -46 -8 -70z M5420 2085 c0 -3 2 -5 5 -5 3 0 5 2 5 5 0 3 -2 5 -5
5 -3 0 -5 -2 -5 -5z M5700 2165 c0 -3 2 -5 5 -5 3 0 5 2 5 5 0 3 -2 5 -5 5 -3
0 -5 -2 -5 -5z M3720 2145 c0 -3 2 -5 5 -5 3 0 5 2 5 5 0 3 -2 5 -5 5 -3 0 -5
-2 -5 -5z M5680 2145 c0 -3 2 -5 5 -5 3 0 5 2 5 5 0 3 -2 5 -5 5 -3 0 -5 -2
-5 -5z M5670 2125 c0 -3 2 -5 5 -5 3 0 5 2 5 5 0 3 -2 5 -5 5 -3 0 -5 -2 -5
-5z M3710 2115 c0 -3 2 -5 5 -5 3 0 5 2 5 5 0 3 -2 5 -5 5 -3 0 -5 -2 -5 -5z
M5970 2115 c0 -3 2 -5 5 -5 3 0 5 2 5 5 0 3 -2 5 -5 5 -3 0 -5 -2 -5 -5z
M5970 2095 c0 -3 2 -5 5 -5 3 0 5 2 5 5 0 3 -2 5 -5 5 -3 0 -5 -2 -5 -5z
M3620 2085 c0 -3 2 -5 5 -5 3 0 5 2 5 5 0 3 -2 5 -5 5 -3 0 -5 -2 -5 -5z
M4090 2085 c0 -3 2 -5 5 -5 3 0 5 2 5 5 0 3 -2 5 -5 5 -3 0 -5 -2 -5 -5z
M4080 2065 c0 -3 2 -5 5 -5 3 0 5 2 5 5 0 3 -2 5 -5 5 -3 0 -5 -2 -5 -5z
M5300 2040 c-8 -5 -12 -12 -9 -15 4 -3 12 1 19 10 14 17 11 19 -10 5z M5981
2024 c0 -11 3 -14 6 -6 3 7 2 16 -1 19 -3 4 -6 -2 -5 -13z M3680 2025 c0 -3 2
-5 5 -5 3 0 5 2 5 5 0 3 -2 5 -5 5 -3 0 -5 -2 -5 -5z M1050 2010 c0 -7 3 -10
7 -7 3 4 3 10 0 14 -4 3 -7 0 -7 -7z M2880 1995 c0 -3 2 -5 5 -5 3 0 5 2 5 5
0 3 -2 5 -5 5 -3 0 -5 -2 -5 -5z M3670 1985 c0 -3 2 -5 5 -5 3 0 5 2 5 5 0 3
-2 5 -5 5 -3 0 -5 -2 -5 -5z M5447 1945 l-28 -34 45 25 c47 26 59 45 29 43
-10 0 -31 -16 -46 -34z M5520 1975 c0 -3 2 -5 5 -5 3 0 5 2 5 5 0 3 -2 5 -5 5
-3 0 -5 -2 -5 -5z M5992 1950 c0 -19 2 -27 5 -17 2 9 2 25 0 35 -3 9 -5 1 -5
-18z M3650 1925 c0 -3 2 -5 5 -5 3 0 5 2 5 5 0 3 -2 5 -5 5 -3 0 -5 -2 -5 -5z
M5400 1895 c0 -3 2 -5 5 -5 3 0 5 2 5 5 0 3 -2 5 -5 5 -3 0 -5 -2 -5 -5z
M5374 1868 c-4 -7 -3 -8 4 -4 12 7 16 16 8 16 -3 0 -8 -5 -12 -12z M4010 1845
c0 -3 2 -5 5 -5 3 0 5 2 5 5 0 3 -2 5 -5 5 -3 0 -5 -2 -5 -5z M5996 1833 c-6
-14 -5 -15 5 -6 7 7 10 15 7 18 -3 3 -9 -2 -12 -12z M3990 1775 c0 -3 2 -5 5
-5 3 0 5 2 5 5 0 3 -2 5 -5 5 -3 0 -5 -2 -5 -5z M3980 1730 c0 -7 3 -10 7 -7
3 4 3 10 0 14 -4 3 -7 0 -7 -7z M5902 1715 c0 -16 2 -22 5 -12 2 9 2 23 0 30
-3 6 -5 -1 -5 -18z M1060 1685 c0 -3 2 -5 5 -5 3 0 5 2 5 5 0 3 -2 5 -5 5 -3
0 -5 -2 -5 -5z M3961 1654 c0 -11 3 -14 6 -6 3 7 2 16 -1 19 -3 4 -6 -2 -5
-13z M5892 1630 c0 -14 2 -19 5 -12 2 6 2 18 0 25 -3 6 -5 1 -5 -13z M3950
1600 c0 -7 3 -10 7 -7 3 4 3 10 0 14 -4 3 -7 0 -7 -7z M3942 1560 c0 -14 2
-19 5 -12 2 6 2 18 0 25 -3 6 -5 1 -5 -13z M5870 1520 c0 -7 3 -10 7 -7 3 4 3
10 0 14 -4 3 -7 0 -7 -7z M3932 1500 c0 -14 2 -19 5 -12 2 6 2 18 0 25 -3 6
-5 1 -5 -13z M2460 1470 c0 -7 3 -10 7 -7 3 4 3 10 0 14 -4 3 -7 0 -7 -7z
M3922 1445 c0 -16 2 -22 5 -12 2 9 2 23 0 30 -3 6 -5 -1 -5 -18z M2896 1424
c-4 -14 -5 -28 -3 -31 3 -2 8 8 11 23 4 14 5 28 3 31 -3 2 -8 -8 -11 -23z
M1140 1425 c0 -3 2 -5 5 -5 3 0 5 2 5 5 0 3 -2 5 -5 5 -3 0 -5 -2 -5 -5z
M2846 1298 c-37 -79 -142 -201 -201 -234 -12 -7 -16 -15 -11 -20 5 -5 11 -4
13 4 3 6 11 12 18 12 7 0 15 3 17 8 2 4 23 25 48 47 65 57 129 158 155 243 12
40 1 23 -39 -60z M3902 1260 c0 -19 2 -27 5 -17 2 9 2 25 0 35 -3 9 -5 1 -5
-18z M1220 1255 c0 -3 2 -5 5 -5 3 0 5 2 5 5 0 3 -2 5 -5 5 -3 0 -5 -2 -5 -5z
M1061 1219 c-1 -34 99 -176 182 -258 l65 -64 40 21 c22 11 43 18 46 15 3 -4 6
0 6 8 0 8 -27 41 -61 74 -33 33 -86 97 -118 141 l-57 82 -34 -19 c-45 -24 -49
-23 -60 4 -9 22 -9 22 -9 -4z m93 -24 c-5 -11 -2 -13 10 -9 12 4 16 0 16 -15
0 -12 5 -21 10 -21 6 0 10 -7 10 -16 0 -8 4 -13 9 -10 9 6 26 -22 23 -36 -1
-5 3 -8 9 -8 17 0 131 -119 124 -130 -18 -29 -59 -8 -148 78 -23 22 -77 99
-77 110 0 6 -4 12 -10 12 -17 0 -11 38 8 49 22 14 22 14 16 -4z M1130 1175 c0
-3 2 -5 5 -5 3 0 5 2 5 5 0 3 -2 5 -5 5 -3 0 -5 -2 -5 -5z M3030 1235 c0 -3 2
-5 5 -5 3 0 5 2 5 5 0 3 -2 5 -5 5 -3 0 -5 -2 -5 -5z M1260 1215 c0 -3 2 -5 5
-5 3 0 5 2 5 5 0 3 -2 5 -5 5 -3 0 -5 -2 -5 -5z M3890 1140 c0 -7 3 -10 7 -7
3 4 3 10 0 14 -4 3 -7 0 -7 -7z M5096 1066 c-15 -32 -25 -65 -22 -73 3 -7 -11
-39 -32 -71 l-37 -57 -6 35 c-4 23 -7 27 -8 12 0 -13 8 -58 18 -100 11 -43 28
-125 39 -184 19 -106 19 -108 0 -139 -10 -17 -17 -33 -15 -36 3 -2 15 12 27
33 20 32 22 41 12 82 -9 40 -7 52 10 85 22 44 88 253 88 280 0 9 -4 17 -9 17
-8 0 -27 82 -34 145 -3 28 -5 26 -31 -29z m37 -142 c-5 -46 -16 -91 -29 -116
-8 -15 -14 -33 -14 -41 0 -17 -30 -77 -31 -62 -2 28 -8 67 -14 84 -14 45 -14
66 2 83 9 10 12 18 7 18 -5 0 2 10 16 21 14 11 20 18 13 15 -8 -5 -8 0 0 19
11 21 14 23 32 11 11 -8 19 -22 18 -32z M1340 1105 c0 -3 2 -5 5 -5 3 0 5 2 5
5 0 3 -2 5 -5 5 -3 0 -5 -2 -5 -5z M5517 1041 c-20 -32 -50 -73 -66 -90 l-30
-32 39 -110 c21 -60 42 -129 45 -154 4 -25 11 -43 15 -40 14 9 17 65 4 76 -7
5 -11 18 -9 27 1 9 -4 29 -12 44 -7 15 -13 30 -13 33 1 29 -1 35 -12 29 -8 -5
-9 -2 -5 9 4 10 2 29 -3 43 -8 20 -6 31 10 51 11 14 18 28 16 32 -2 3 2 12 10
19 12 11 14 10 14 -3 0 -8 5 -15 11 -15 5 0 8 -4 5 -9 -3 -4 11 -13 32 -19 21
-6 54 -27 74 -45 29 -26 38 -31 43 -19 3 8 8 12 12 9 3 -4 -2 -18 -11 -33 -10
-14 -16 -28 -13 -30 2 -2 21 21 42 53 l38 57 -23 18 c-31 25 -40 23 -34 -9 3
-17 -1 -36 -10 -48 -15 -20 -15 -20 -16 2 0 21 -65 153 -80 163 -4 3 -10 15
-14 28 -11 33 -20 28 -59 -37z m53 -37 c0 -8 4 -13 8 -10 8 5 37 -52 30 -59
-6 -7 -70 28 -75 41 -5 13 15 43 30 44 4 0 7 -7 7 -16z m150 -104 c-6 -11 -13
-20 -16 -20 -2 0 0 9 6 20 6 11 13 20 16 20 2 0 0 -9 -6 -20z M5590 955 c0 -3
2 -5 5 -5 3 0 5 2 5 5 0 3 -2 5 -5 5 -3 0 -5 -2 -5 -5z M5400 955 c0 -3 2 -5
5 -5 3 0 5 2 5 5 0 3 -2 5 -5 5 -3 0 -5 -2 -5 -5z M1410 945 c0 -3 2 -5 5 -5
3 0 5 2 5 5 0 3 -2 5 -5 5 -3 0 -5 -2 -5 -5z M4929 909 c-35 -38 -38 -57 -5
-32 23 17 52 63 40 63 -3 0 -19 -14 -35 -31z M5331 905 c-18 -6 -38 -20 -44
-31 -5 -10 -32 -47 -59 -80 -26 -34 -48 -66 -48 -70 0 -5 44 -38 97 -74 54
-36 106 -73 117 -82 11 -10 23 -18 27 -18 21 0 19 -42 -3 -59 -30 -25 -24 -28
39 -23 58 4 54 -3 38 77 -4 18 -19 32 -53 48 -26 13 -74 41 -107 62 -33 22
-63 39 -66 38 -4 -1 -14 6 -24 17 -16 17 -16 20 1 47 10 15 21 30 24 33 3 3
11 17 19 33 14 25 30 36 32 20 8 -112 20 -164 37 -170 10 -4 19 -9 22 -13 5
-7 99 -70 104 -70 6 0 -32 138 -54 195 -12 33 -27 77 -33 98 -12 40 -15 41
-66 22z m20 -34 c7 11 9 10 9 -4 0 -11 4 -15 12 -11 8 5 9 2 5 -9 -3 -10 -3
-17 2 -17 4 0 8 -6 9 -12 3 -38 8 -54 19 -66 14 -14 28 -80 20 -88 -3 -3 -19
2 -36 12 -23 13 -31 27 -37 58 -3 23 -11 46 -16 53 -5 7 -7 17 -3 22 3 6 2 19
-3 28 -5 10 -7 25 -4 33 4 12 6 12 10 1 4 -11 6 -11 13 0z M1380 890 c0 -5 19
-19 43 -31 48 -25 47 -21 -6 15 -20 14 -37 21 -37 16z M5750 885 c0 -3 2 -5 5
-5 3 0 5 2 5 5 0 3 -2 5 -5 5 -3 0 -5 -2 -5 -5z M3612 859 c-5 -13 -4 -32 2
-45 6 -13 13 -19 14 -14 2 6 7 8 11 5 5 -2 16 2 27 9 16 12 16 16 4 30 -27 33
-50 39 -58 15z m28 -24 c0 -3 -2 -5 -5 -5 -3 0 -5 2 -5 5 0 3 2 5 5 5 3 0 5
-2 5 -5z m30 -10 c0 -3 -2 -5 -5 -5 -3 0 -5 2 -5 5 0 3 2 5 5 5 3 0 5 -2 5 -5z
M5740 860 c0 -5 0 -13 1 -16 0 -4 -3 -10 -8 -13 -5 -3 -24 -32 -42 -64 -18
-31 -56 -93 -86 -136 -56 -83 -79 -121 -71 -121 12 0 206 300 210 325 1 6 5
16 9 23 5 7 4 12 -2 12 -6 0 -11 -4 -11 -10z M158 832 c-16 -9 -28 -22 -28
-29 0 -6 -6 -18 -13 -25 -20 -19 -27 -57 -17 -84 8 -19 33 -31 152 -69 164
-53 313 -88 345 -82 13 2 69 -9 125 -25 251 -71 687 -175 933 -222 748 -144
1268 -164 1658 -62 127 33 246 85 247 109 0 12 -17 8 -32 -7 -15 -15 -76 -49
-94 -52 -6 -1 -66 -16 -133 -33 -129 -33 -131 -33 -336 -52 -136 -12 -420 -6
-590 12 -49 5 -115 12 -145 15 -30 3 -120 16 -200 29 -80 13 -161 26 -180 29
-19 3 -105 19 -190 37 -85 17 -179 35 -209 41 -65 11 -640 156 -655 166 -6 3
-17 7 -26 9 -8 1 -55 12 -104 24 -61 15 -91 19 -93 12 -3 -8 -12 -7 -31 2 -23
11 -114 37 -172 49 -8 2 -23 6 -32 10 -9 4 -22 8 -30 10 -7 1 -48 13 -90 26
-78 24 -104 48 -80 72 6 6 8 17 5 26 -4 10 -2 13 5 8 7 -4 12 -1 12 8 0 25 43
29 106 10 32 -10 62 -17 67 -16 4 1 7 -3 7 -8 0 -6 6 -10 13 -9 18 3 63 -11
142 -43 39 -16 78 -31 88 -33 10 -2 33 -13 51 -24 41 -26 110 -47 361 -111
776 -197 1545 -305 1930 -270 55 5 125 11 155 13 49 4 172 30 285 60 22 6 43
10 48 9 4 -1 7 3 7 10 0 6 3 8 6 5 7 -7 54 23 97 62 l29 26 29 -35 c31 -36 37
-60 17 -60 -7 0 3 -15 21 -32 21 -18 37 -26 39 -20 2 7 10 12 18 12 8 0 14 4
14 10 0 5 -10 9 -22 7 -31 -3 -63 79 -40 106 14 16 12 17 -22 17 -22 0 -35 4
-31 10 3 6 -1 7 -9 4 -12 -5 -16 1 -16 23 0 48 -42 74 -53 32 -3 -12 -2 -32 3
-45 14 -36 6 -46 -68 -82 -265 -128 -774 -145 -1412 -47 -400 61 -683 123
-1294 283 -33 8 -67 23 -76 32 -21 21 -186 86 -341 134 -134 42 -117 40 -151
18z M1470 834 c0 -6 106 -54 118 -54 7 1 -106 60 -114 60 -2 0 -4 -2 -4 -6z
M5650 824 c0 -6 -12 -28 -26 -49 -14 -21 -27 -47 -29 -57 -7 -33 -16 -40 -33
-26 -15 12 -15 11 -4 -4 12 -14 8 -24 -22 -69 -20 -29 -33 -55 -31 -58 6 -6 0
-14 89 122 60 93 74 122 66 135 -5 9 -10 12 -10 6z M2045 805 c-90 -30 -215
-47 -307 -42 -56 4 -106 11 -112 17 -12 12 -26 13 -26 1 0 -18 101 -34 206
-34 87 0 165 15 229 44 34 15 41 24 10 14z M3667 789 c7 -7 15 -10 18 -7 3 3
-2 9 -12 12 -14 6 -15 5 -6 -5z M5610 785 c0 -3 2 -5 5 -5 3 0 5 2 5 5 0 3 -2
5 -5 5 -3 0 -5 -2 -5 -5z M3500 775 c0 -3 2 -5 5 -5 3 0 5 2 5 5 0 3 -2 5 -5
5 -3 0 -5 -2 -5 -5z M3636 765 c4 -8 10 -12 15 -9 5 3 9 -1 9 -8 0 -7 27 -29
60 -48 33 -19 60 -38 60 -41 0 -4 9 -9 19 -12 13 -3 24 -21 34 -53 15 -53 24
-60 49 -40 16 11 16 17 2 62 -8 27 -13 57 -10 67 2 10 -1 17 -7 15 -20 -4 -60
14 -111 48 -28 18 -52 31 -55 27 -4 -3 -1 -8 6 -10 36 -13 133 -87 122 -94
-17 -10 -143 61 -167 93 -16 22 -34 24 -26 3z m211 -112 c-4 -3 -10 -3 -14 0
-3 4 0 7 7 7 7 0 10 -3 7 -7z M3610 735 c0 -3 2 -5 5 -5 3 0 5 2 5 5 0 3 -2 5
-5 5 -3 0 -5 -2 -5 -5z M5570 715 c0 -3 2 -5 5 -5 3 0 5 2 5 5 0 3 -2 5 -5 5
-3 0 -5 -2 -5 -5z M3610 700 c0 -7 3 -10 7 -7 3 4 3 10 0 14 -4 3 -7 0 -7 -7z
M3694 630 c0 -44 2 -50 26 -58 22 -8 28 -19 39 -73 10 -54 17 -68 44 -86 34
-23 77 -27 77 -7 0 7 -8 10 -18 7 -14 -3 -22 3 -30 24 -23 59 -44 145 -39 164
3 10 1 22 -4 25 -5 3 -9 1 -9 -5 0 -6 -8 -8 -17 -4 -28 10 -53 35 -46 46 3 5
1 7 -5 3 -5 -3 -12 -2 -14 4 -1 5 -3 -12 -4 -40z m43 -27 c-4 -3 -10 -3 -14 0
-3 4 0 7 7 7 7 0 10 -3 7 -7z m23 -8 c0 -3 -2 -5 -5 -5 -3 0 -5 2 -5 5 0 3 2
5 5 5 3 0 5 -2 5 -5z m-20 -10 c0 -3 -2 -5 -5 -5 -3 0 -5 2 -5 5 0 3 2 5 5 5
3 0 5 -2 5 -5z m60 -120 c0 -3 -2 -5 -5 -5 -3 0 -5 2 -5 5 0 3 2 5 5 5 3 0 5
-2 5 -5z M580 655 c0 -3 2 -5 5 -5 3 0 5 2 5 5 0 3 -2 5 -5 5 -3 0 -5 -2 -5
-5z M4410 641 c0 -8 -7 -11 -19 -8 -29 7 -51 -51 -22 -61 9 -3 11 2 6 17 -4
15 -1 23 11 28 21 8 46 -24 38 -49 -8 -25 5 -22 38 9 15 15 28 21 28 15 0 -7
5 -12 11 -12 5 0 7 5 4 10 -9 15 16 11 45 -6 l25 -15 -28 6 c-17 3 -26 2 -23
-4 3 -5 0 -12 -6 -14 -7 -3 3 -6 22 -6 36 0 70 18 70 37 0 16 -28 28 -81 36
-37 6 -50 3 -72 -14 -25 -20 -27 -20 -27 -3 0 22 -20 56 -20 34z m160 -46 c0
-3 -2 -5 -5 -5 -3 0 -5 2 -5 5 0 3 2 5 5 5 3 0 5 -2 5 -5z M4370 540 c0 -7 3
-10 7 -7 3 4 3 10 0 14 -4 3 -7 0 -7 -7z M4398 533 c6 -2 18 -2 25 0 6 3 1 5
-13 5 -14 0 -19 -2 -12 -5z M3876 507 c-22 -16 -14 -36 27 -64 44 -31 49 -29
33 10 -8 17 -17 40 -20 50 -6 20 -16 21 -40 4z M3560 505 c0 -3 2 -5 5 -5 3 0
5 2 5 5 0 3 -2 5 -5 5 -3 0 -5 -2 -5 -5z M3707 403 c-12 -12 -7 -22 18 -39 20
-13 28 -14 40 -4 21 18 19 29 -5 23 -14 -4 -20 0 -20 11 0 16 -21 22 -33 9z
M3570 355 c0 -3 2 -5 5 -5 3 0 5 2 5 5 0 3 -2 5 -5 5 -3 0 -5 -2 -5 -5z M4069
346 c8 -10 48 -36 89 -59 40 -23 83 -48 95 -54 12 -7 31 -12 42 -12 15 0 12 4
-10 11 -16 6 -66 33 -109 60 -113 70 -125 76 -107 54z M5034 331 c6 -10 -26
-21 -63 -21 -13 0 -21 -3 -18 -6 4 -4 41 -1 84 6 54 10 71 16 57 21 -27 11
-66 11 -60 0z M4870 289 c-19 -4 -48 -10 -65 -13 -16 -3 -75 -14 -129 -25 -55
-11 -103 -18 -108 -15 -4 3 -8 2 -8 -3 0 -10 -39 -14 -152 -16 -100 -2 -96
-17 5 -17 59 0 513 83 526 96 7 6 -30 3 -69 -7z"/>
</g>
</svg>
